<svg width="20.000000" height="20.000000" viewBox="0 0 20 20" fill="none" xmlns="http://www.w3.org/2000/svg" xmlns:xlink="http://www.w3.org/1999/xlink">
	<desc>
			Created with Pixso.
	</desc>
	<defs/>
	<path id="Vector" d="M17.5 0L2.5 0C1.12 0 0 1.12 0 2.5L0 17.5C0 18.87 1.12 20 2.5 20L17.5 20C18.87 20 20 18.87 20 17.5L20 2.5C20 1.12 18.87 0 17.5 0Z" fill="#3B5999" fill-opacity="1.000000" fill-rule="nonzero"/>
	<path id="Vector" d="M13.75 10L13.75 7.5C13.75 6.81 14.31 6.87 15 6.87L16.25 6.87L16.25 3.75L13.75 3.75C11.67 3.75 10 5.42 10 7.5L10 10L7.5 10L7.5 13.12L10 13.12L10 20L13.75 20L13.75 13.12L15.62 13.12L16.87 10L13.75 10Z" fill="#FFFFFF" fill-opacity="1.000000" fill-rule="nonzero"/>
</svg>
