<svg width="20.000000" height="20.000000" viewBox="0 0 20 20" fill="none" xmlns="http://www.w3.org/2000/svg" xmlns:xlink="http://www.w3.org/1999/xlink">
	<desc>
			Created with Pixso.
	</desc>
	<defs/>
	<path id="Vector" d="M20 10C20 15.52 15.52 20 10 20C4.47 20 0 15.52 0 10C0 4.47 4.47 0 10 0C15.52 0 20 4.47 20 10Z" fill="#273B7A" fill-opacity="1.000000" fill-rule="evenodd"/>
	<path id="Vector" d="M19.77 12.11L13.66 6L8.56 6.4L5.95 8.78L6.29 13.95L12.08 19.78C15.92 18.96 18.94 15.95 19.77 12.11Z" fill="#121149" fill-opacity="1.000000" fill-rule="nonzero"/>
	<path id="Vector" d="M10.21 9.08L10.21 10.99L13.21 10.99C12.79 12.36 11.51 13.36 10 13.36C8.14 13.36 6.63 11.85 6.63 9.99C6.63 8.14 8.14 6.63 10 6.63C10.86 6.63 11.65 6.96 12.25 7.5L13.66 6C12.69 5.11 11.41 4.57 10 4.57C7 4.57 4.57 7 4.57 9.99C4.57 12.99 7 15.42 10 15.42C12.99 15.42 15.42 12.99 15.42 9.99C15.42 9.68 15.39 9.37 15.34 9.08L10.21 9.08Z" fill="#4285F4" fill-opacity="1.000000" fill-rule="nonzero"/>
	<path id="Vector" d="M10 6.63C10.86 6.63 11.65 6.96 12.25 7.5L13.66 6C12.69 5.11 11.41 4.57 10 4.57C7.92 4.57 6.12 5.74 5.2 7.46L6.86 8.78C7.35 7.52 8.57 6.63 10 6.63Z" fill="#EA4335" fill-opacity="1.000000" fill-rule="nonzero"/>
	<path id="Vector" d="M6.63 10C6.63 9.57 6.71 9.16 6.86 8.78L5.21 7.46C4.8 8.21 4.57 9.08 4.57 10C4.57 10.92 4.8 11.79 5.21 12.55L6.86 11.2C6.71 10.82 6.63 10.42 6.63 10Z" fill="#FBBC05" fill-opacity="1.000000" fill-rule="nonzero"/>
	<path id="Vector" d="M11.87 12.79C11.33 13.15 10.69 13.36 10 13.36C8.56 13.36 7.34 12.46 6.86 11.2L5.21 12.55C6.12 14.25 7.92 15.42 10 15.42C11.34 15.42 12.57 14.93 13.52 14.11L11.87 12.79Z" fill="#34A853" fill-opacity="1.000000" fill-rule="nonzero"/>
	<path id="Vector" d="M15.42 10C15.42 9.68 15.39 9.37 15.34 9.08L10.21 9.08L10.21 10.99L13.21 10.99C12.98 11.73 12.5 12.37 11.87 12.79L13.52 14.11C14.68 13.12 15.42 11.64 15.42 10Z" fill="#4285F4" fill-opacity="1.000000" fill-rule="nonzero"/>
</svg>
