<svg width="10.858337" height="15.201141" viewBox="0 0 10.8583 15.2011" fill="none" xmlns="http://www.w3.org/2000/svg" xmlns:xlink="http://www.w3.org/1999/xlink">
	<desc>
			Created with Pixso.
	</desc>
	<defs/>
	<path id="Vector" d="M6.51 5.42C6.51 6.02 6.02 6.51 5.42 6.51C4.82 6.51 4.34 6.02 4.34 5.42C4.34 4.82 4.82 4.34 5.42 4.34C6.02 4.34 6.51 4.82 6.51 5.42Z" fill="#FC1200" fill-opacity="1.000000" fill-rule="evenodd"/>
	<path id="Vector" d="M5.42 0C2.43 0 0 2.32 0 5.19C0 6.55 0.62 8.36 1.84 10.57C2.83 12.35 3.96 13.96 4.56 14.76C4.66 14.89 4.79 15 4.94 15.08C5.09 15.16 5.26 15.2 5.43 15.2C5.59 15.2 5.76 15.16 5.91 15.08C6.06 15 6.19 14.89 6.29 14.76C6.89 13.96 8.02 12.35 9.01 10.57C10.23 8.36 10.85 6.55 10.85 5.19C10.85 2.32 8.42 0 5.42 0ZM5.42 7.6C4.99 7.6 4.57 7.47 4.22 7.23C3.86 6.99 3.58 6.65 3.42 6.26C3.25 5.86 3.21 5.42 3.29 5C3.38 4.58 3.58 4.19 3.89 3.89C4.19 3.58 4.58 3.38 5 3.29C5.42 3.21 5.86 3.25 6.26 3.42C6.65 3.58 6.99 3.86 7.23 4.22C7.47 4.57 7.6 4.99 7.6 5.42C7.6 6 7.37 6.55 6.96 6.96C6.55 7.37 6 7.6 5.42 7.6Z" fill="#FC1200" fill-opacity="1.000000" fill-rule="nonzero"/>
</svg>
