<svg width="20.749634" height="19.783417" viewBox="0 0 20.7496 19.7834" fill="none" xmlns="http://www.w3.org/2000/svg" xmlns:xlink="http://www.w3.org/1999/xlink">
	<desc>
			Created with Pixso.
	</desc>
	<defs/>
	<path id="Star 1" d="M9.89 0.34L7.79 6.82C7.72 7.03 7.53 7.17 7.31 7.17L0.5 7.17C0.01 7.17 -0.19 7.79 0.2 8.07L5.72 12.08C5.89 12.21 5.97 12.43 5.9 12.64L3.79 19.12C3.64 19.58 4.17 19.97 4.56 19.68L10.08 15.67C10.25 15.55 10.49 15.55 10.66 15.67L16.18 19.68C16.57 19.97 17.1 19.58 16.95 19.12L14.84 12.64C14.77 12.43 14.85 12.21 15.02 12.08L20.54 8.07C20.93 7.79 20.73 7.17 20.24 7.17L13.43 7.17C13.21 7.17 13.02 7.03 12.95 6.82L10.85 0.34C10.7 -0.12 10.04 -0.12 9.89 0.34Z" fill="#FFC700" fill-opacity="1.000000" fill-rule="evenodd"/>
</svg>
