<svg width="20.000000" height="20.000122" viewBox="0 0 20 20.0001" fill="none" xmlns="http://www.w3.org/2000/svg" xmlns:xlink="http://www.w3.org/1999/xlink">
	<desc>
			Created with Pixso.
	</desc>
	<defs>
		<linearGradient x1="6.640390" y1="2.811963" x2="11.698961" y2="13.634954" id="paint_linear_0_184_0" gradientUnits="userSpaceOnUse">
			<stop stop-color="#00C3FF"/>
			<stop offset="1.000000" stop-color="#00B0ED"/>
		</linearGradient>
		<linearGradient x1="14.229922" y1="12.268913" x2="-14.827458" y2="-3.318546" id="paint_linear_0_185_0" gradientUnits="userSpaceOnUse">
			<stop stop-color="#00B0ED" stop-opacity="0.000000"/>
			<stop offset="1.000000" stop-color="#00A2CE"/>
		</linearGradient>
		<linearGradient x1="10.000137" y1="17.085342" x2="10.000137" y2="19.705997" id="paint_linear_0_186_0" gradientUnits="userSpaceOnUse">
			<stop stop-color="#00B0ED" stop-opacity="0.000000"/>
			<stop offset="1.000000" stop-color="#00A2CE"/>
		</linearGradient>
		<linearGradient x1="19.118193" y1="18.830891" x2="9.347595" y2="9.060294" id="paint_linear_0_187_0" gradientUnits="userSpaceOnUse">
			<stop stop-color="#00B0ED" stop-opacity="0.000000"/>
			<stop offset="1.000000" stop-color="#00A2CE"/>
		</linearGradient>
	</defs>
	<path id="Vector" d="M16.42 19.65C12.14 20.11 7.85 20.11 3.57 19.65C1.87 19.47 0.52 18.12 0.34 16.42C-0.12 12.14 -0.12 7.85 0.34 3.57C0.52 1.87 1.87 0.52 3.57 0.34C7.85 -0.12 12.14 -0.12 16.42 0.34C18.12 0.52 19.47 1.87 19.65 3.57C20.11 7.85 20.11 12.14 19.65 16.42C19.47 18.12 18.12 19.47 16.42 19.65Z" fill="url(#paint_linear_0_184_0)" fill-opacity="1.000000" fill-rule="nonzero"/>
	<path id="Vector" d="M18.56 4.3C18.4 2.78 17.21 1.59 15.69 1.42C11.9 1.02 8.09 1.02 4.3 1.42C2.78 1.59 1.59 2.78 1.43 4.3C1.02 8.09 1.02 11.9 1.43 15.69C1.59 17.21 2.78 18.4 4.3 18.56C8.09 18.97 11.9 18.97 15.69 18.56C17.21 18.4 18.4 17.21 18.56 15.69C18.97 11.9 18.97 8.09 18.56 4.3Z" fill="url(#paint_linear_0_185_0)" fill-opacity="1.000000" fill-rule="nonzero"/>
	<path id="Vector" d="M0.29 16C0.31 16.14 0.32 16.28 0.34 16.42C0.52 18.12 1.87 19.47 3.57 19.65C7.85 20.11 12.14 20.11 16.42 19.65C18.12 19.47 19.47 18.12 19.65 16.42C19.67 16.28 19.68 16.14 19.7 16L0.29 16Z" fill="url(#paint_linear_0_186_0)" fill-opacity="1.000000" fill-rule="nonzero"/>
	<path id="Vector" d="M19.99 9.29L15.84 5.14C15.37 5.41 14.96 5.55 14.66 5.64C14.48 5.68 14.34 5.71 14.24 5.72C13.77 5.24 13.12 4.94 12.39 4.94C10.97 4.94 9.81 6.1 9.81 7.52C9.81 7.57 9.82 7.62 9.82 7.67C9.83 7.8 9.84 7.92 9.87 8.04C9.27 8.03 7.34 7.87 5.5 6.29C5.5 6.29 5.5 6.29 5.5 6.29L5.5 6.29L4.63 5.42C4.63 5.42 3.61 7.2 5.11 8.55C5.17 8.62 5.25 8.7 5.33 8.77C5.33 8.77 5.34 8.78 5.34 8.79C5.15 8.78 4.56 8.72 4.21 8.47C4.21 8.47 4.14 9.56 5.05 10.36L5.78 11.1C5.56 11.12 5.31 11.11 5.14 11.04C5.14 11.04 5.29 11.68 5.88 12.2L6.9 13.23C6.29 13.59 5.21 14.04 3.8 13.92L10.01 20C12.15 19.99 14.29 19.88 16.42 19.65C18.12 19.47 19.47 18.12 19.65 16.42C19.91 14.04 20.02 11.67 19.99 9.29Z" fill="url(#paint_linear_0_187_0)" fill-opacity="1.000000" fill-rule="nonzero"/>
	<path id="Vector" d="M16.19 6.14C15.75 6.37 15.08 6.48 14.86 6.51C14.86 6.5 14.86 6.49 14.86 6.48C15.61 6.02 15.84 5.14 15.84 5.14C15.37 5.41 14.96 5.55 14.66 5.64C14.48 5.68 14.34 5.71 14.24 5.72C13.77 5.24 13.12 4.94 12.39 4.94C10.97 4.94 9.81 6.1 9.81 7.52C9.81 7.57 9.82 7.62 9.82 7.67C9.83 7.8 9.84 7.92 9.87 8.04C9.18 8.03 6.69 7.82 4.63 5.42C4.63 5.42 3.48 7.42 5.41 8.79C5.41 8.79 4.63 8.77 4.21 8.47C4.21 8.47 4.09 10.4 6.31 11.01C6.31 11.01 5.53 11.21 5.14 11.04C5.14 11.04 5.53 12.7 7.49 12.82C7.49 12.82 6.08 14.11 3.8 13.92C4.92 14.63 6.26 15.05 7.69 15.05C11.71 15.05 14.97 11.78 14.97 7.76C14.97 7.71 14.97 7.66 14.97 7.61C14.97 7.58 14.97 7.55 14.97 7.52C14.97 7.5 14.97 7.48 14.97 7.46C15.71 6.96 16.19 6.14 16.19 6.14Z" fill="#FFFFFF" fill-opacity="1.000000" fill-rule="nonzero"/>
</svg>
